<svg width="75" height="63" viewBox="0 0 75 63" fill="none" xmlns="http://www.w3.org/2000/svg">
<path d="M52.1246 53.3085C51.8075 52.6521 52.0267 51.8817 52.6077 51.4613L52.6078 51.4612C57.7534 47.742 61.5021 42.209 62.9164 35.8091L52.1246 53.3085ZM52.1246 53.3085C52.5277 54.1429 53.5849 54.3983 54.3311 53.8576C60.0583 49.7195 64.2345 43.5653 65.8074 36.4409L65.8074 36.4406C65.9869 35.6235 65.4633 34.836 64.6807 34.6662L64.6897 34.6324H64.3645H64.3571C63.6525 34.6324 63.0657 35.1314 62.9165 35.8089L52.1246 53.3085Z" fill="white" stroke="white" stroke-width="0.5"/>
<path d="M51.4944 7.14061L51.4944 7.1406C52.4733 6.5741 52.4892 5.13826 51.4915 4.57944C47.2692 2.21122 42.4058 0.85791 37.2305 0.85791C32.1773 0.85791 27.4228 2.15012 23.2721 4.41508L23.2721 4.4151C22.2642 4.96536 22.2707 6.40769 23.2506 6.97916L23.2538 6.98124L23.2537 6.98146L23.2637 6.98726C23.7131 7.24766 24.2591 7.24356 24.7095 6.99857C28.4356 4.97228 32.6985 3.81536 37.2294 3.81536C41.8725 3.81536 46.2355 5.02768 50.0255 7.14794L50.0256 7.148C50.4788 7.40121 51.0315 7.40805 51.4857 7.14565L51.4858 7.14558L51.4944 7.14061Z" fill="white" stroke="white" stroke-width="0.5"/>
<path d="M10.3578 34.6551L10.3581 34.6324H10.1056H10.0976C9.14458 34.6324 8.45187 35.5191 8.65583 36.4425L10.3578 34.6551ZM10.3578 34.6551C10.9462 34.758 11.4136 35.2156 11.5461 35.81L11.5462 35.8104C12.9894 42.3406 16.8647 47.9664 22.1744 51.6856C22.779 52.1078 23.003 52.9045 22.6639 53.5723L22.6583 53.5833L22.6581 53.5832C22.2451 54.3875 21.2185 54.6257 20.4832 54.1101C14.5761 49.9719 10.2611 43.7124 8.65584 36.4425L10.3578 34.6551Z" fill="white" stroke="white" stroke-width="0.5"/>
<path d="M46.0138 42.4332C46.0138 37.7446 42.2003 33.9311 37.5116 33.9311C32.823 33.9311 29.0101 37.7446 29.0101 42.4332C29.0101 47.1218 32.8236 50.9353 37.5122 50.9353C42.2009 50.9353 46.0138 47.1218 46.0138 42.4332ZM31.9677 42.4332C31.9677 39.3765 34.4551 36.8887 37.5122 36.8887C40.5693 36.8887 43.0567 39.3761 43.0567 42.4332C43.0567 45.491 40.5689 47.9777 37.5122 47.9777C34.4556 47.9777 31.9677 45.4898 31.9677 42.4332Z" fill="white" stroke="white" stroke-width="0.5"/>
<path d="M47.1645 61.0528H47.1481L47.1166 60.8393C46.6435 57.6321 43.873 55.1628 40.5375 55.1639H40.5375H34.4864C31.1514 55.1639 28.3808 57.6327 27.9078 60.8392L47.1645 61.0528ZM47.1645 61.0528C47.3406 61.635 47.863 62.0636 48.5012 62.0636H48.6669C49.4875 62.0636 50.1705 61.3497 50.058 60.5146L50.058 60.5144C49.422 55.8285 45.3956 52.2065 40.5375 52.2065H34.4864C29.6289 52.2065 25.6027 55.8296 24.9666 60.5142C24.9666 60.5142 24.9666 60.5143 24.9666 60.5143L25.2143 60.548C25.1223 61.2222 25.6771 61.8136 26.3577 61.8136H26.5234L47.1645 61.0528Z" fill="white" stroke="white" stroke-width="0.5"/>
<path d="M21.8106 12.7329C21.8106 8.04424 17.9971 4.23074 13.3084 4.23074C8.6198 4.23074 4.8063 8.04424 4.8063 12.7329C4.80572 17.421 8.61985 21.2338 13.3079 21.2338C17.9964 21.2338 21.8106 17.4204 21.8106 12.7329ZM7.76334 12.7329C7.76334 9.67622 10.2508 7.18836 13.3079 7.18836C16.3649 7.18836 18.8524 9.6758 18.8524 12.7329C18.8524 15.79 16.3649 18.2774 13.3079 18.2774C10.2508 18.2774 7.76334 15.7895 7.76334 12.7329Z" fill="white" stroke="white" stroke-width="0.5"/>
<path d="M0.753738 31.0965H0.723623L0.762169 30.8129C1.39883 26.1276 5.42508 22.505 10.2826 22.505H16.3337C21.1917 22.505 25.2181 26.1269 25.8541 30.8127C25.9682 31.6486 25.2832 32.3622 24.463 32.3622H24.2973C23.5834 32.3622 23.0143 31.8258 22.9129 31.1379C22.4398 27.9319 19.6688 25.4625 16.3332 25.4625H10.2821C6.94712 25.4625 4.17655 27.9313 3.70349 31.1378L0.753738 31.0965ZM0.753738 31.0965C0.808265 31.8039 1.42792 32.3622 2.15338 32.3622H2.31908C3.03243 32.3622 3.60214 31.8258 3.70348 31.1378L0.753738 31.0965Z" fill="white" stroke="white" stroke-width="0.5"/>
<path d="M70.217 12.7329C70.217 8.04424 66.4035 4.23074 61.7149 4.23074C57.0263 4.23074 53.2128 8.04424 53.2128 12.7329C53.2128 17.421 57.0274 21.2338 61.7161 21.2338C66.4041 21.2338 70.217 17.4203 70.217 12.7329ZM56.171 12.7329C56.171 9.67622 58.6584 7.18836 61.7155 7.18836C64.7726 7.18836 67.26 9.6758 67.26 12.7329C67.26 15.79 64.7726 18.2774 61.7155 18.2774C58.6584 18.2774 56.171 15.7895 56.171 12.7329Z" fill="white" stroke="white" stroke-width="0.5"/>
<path d="M58.6902 22.5061C53.8326 22.5061 49.8064 26.1287 49.1697 30.814C49.0558 31.6504 49.7407 32.3633 50.5608 32.3633H50.7254C51.4388 32.3633 52.0084 31.8269 52.1103 31.1391L52.1104 31.1389C52.5834 27.9324 55.3539 25.4636 58.6901 25.4636H64.7412C68.0768 25.4636 70.8479 27.933 71.321 31.139C71.4223 31.8269 71.9915 32.3633 72.706 32.3633H72.8706C73.6908 32.3633 74.3757 31.6497 74.2617 30.8138C73.6251 26.1281 69.5993 22.5061 64.7413 22.5061H58.6902Z" fill="white" stroke="white" stroke-width="0.5"/>
</svg>
