<svg width="80" height="67" viewBox="0 0 80 67" fill="none" xmlns="http://www.w3.org/2000/svg">
<path d="M39.4701 40.7048C35.0346 40.7048 32.7868 34.7074 32.596 32.2067C32.2015 27.0425 34.573 23.4908 39.7268 23.4908C44.8806 23.4908 47.2509 27.0354 46.8563 32.2067C46.6283 35.1704 44.2313 40.7048 39.4699 40.7048H39.4701ZM39.7237 26.3598C36.2507 26.3598 35.191 28.5532 35.4535 31.9889C35.5899 33.7751 37.2478 37.8358 39.47 37.8358C42.339 37.8358 43.8652 33.6526 43.9932 31.9889C44.2583 28.5116 43.1652 26.3598 39.7243 26.3598H39.7237Z" fill="white"/>
<path d="M79.8982 20.8449V5.91911C79.8482 4.46732 79.2405 3.09045 78.2011 2.07549C77.1623 1.06046 75.7721 0.484744 74.3196 0.468087H51.5447C50.018 0.39124 48.522 0.920847 47.3841 1.94165C46.2461 2.96309 45.5582 4.39242 45.4699 5.91921V14.8131H8.65015C7.73181 14.8483 6.86465 15.2447 6.23774 15.9165C5.61079 16.5883 5.27522 17.481 5.3034 18.3994V54.9781H4.02838C3.19714 54.957 2.39215 55.2657 1.78893 55.8369C1.18567 56.4088 0.833458 57.1958 0.809113 58.0263C0.914137 60.3574 1.93749 62.552 3.65564 64.1312C5.37375 65.7104 7.64664 66.5456 9.97822 66.4539H69.4842C71.816 66.5455 74.0887 65.7104 75.8068 64.1312C77.5249 62.552 78.5484 60.3573 78.6534 58.0263C78.629 57.1951 78.2762 56.408 77.6723 55.8362C77.0684 55.265 76.2627 54.9563 75.4315 54.9781H74.159V26.2768C75.6358 26.3005 77.0626 25.7452 78.1353 24.7302C79.2073 23.7145 79.84 22.3198 79.897 20.8443L79.8982 20.8449ZM48.3394 5.91911C48.4309 5.15511 48.8177 4.45771 49.4165 3.97558C50.0159 3.49272 50.7799 3.2641 51.5451 3.3371H74.0429C74.7806 3.28779 75.5081 3.53115 76.0672 4.01465C76.6263 4.49814 76.9721 5.18209 77.0298 5.91916V20.852C76.9683 21.5865 76.6212 22.2673 76.0621 22.7475C75.5037 23.2278 74.7781 23.4692 74.043 23.4199H60.8457C60.4685 23.4205 60.1015 23.5409 59.7974 23.7644L54.0779 27.9718V25.1412C54.0638 24.1793 53.2742 23.4097 52.3123 23.4198H51.5457C50.7811 23.4935 50.0183 23.2649 49.4195 22.7839C48.8208 22.303 48.4333 21.6075 48.3398 20.8448L48.3394 5.91911ZM75.4357 57.8477C76.8702 57.8477 74.8619 63.5857 69.4851 63.5857H9.9807C4.60586 63.5857 2.5956 57.8477 4.0301 57.8477H27.7738C28.9675 58.6745 30.3592 59.1695 31.8065 59.2822H47.6659C49.1862 59.3405 50.6757 58.8468 51.8605 57.8919C51.8605 57.8919 51.3341 57.8894 75.4354 57.8477L75.4357 57.8477ZM25.6826 54.9788C26.2545 52.5401 27.6307 50.3653 29.5896 48.804C31.5479 47.2428 33.9751 46.3859 36.4803 46.3718H42.9873H42.9867C45.4976 46.3865 47.9305 47.2479 49.8914 48.8162C51.8517 50.3851 53.226 52.5696 53.7914 55.0158H51.8907C49.9472 55.0158 50.2154 56.4087 47.6648 56.4087H31.8066C30.2921 56.4087 29.3321 54.9742 27.7799 54.9742L25.6826 54.9788ZM56.7299 55.0121H56.7305C56.1388 51.7927 54.4424 48.8814 51.9333 46.7804C49.4241 44.6793 46.2606 43.52 42.9876 43.5028H36.4811C33.2137 43.5195 30.0547 44.6741 27.5469 46.7689C25.0397 48.8636 23.3408 51.7665 22.7426 54.9788H8.17552V18.4C8.17552 17.987 8.42784 17.6828 8.65326 17.6828H45.473V20.8387C45.5537 22.3065 46.1934 23.6872 47.2603 24.6984C48.3272 25.7089 49.7412 26.2731 51.211 26.2737V30.4498C51.2116 31.0588 51.5542 31.6154 52.0973 31.8907C52.6403 32.1655 53.2916 32.1123 53.7828 31.7524L61.2108 26.2899H71.2939V54.9863L56.7299 55.0121Z" fill="white"/>
<path d="M55.5118 9.0755H52.6428C51.8507 9.0755 51.2083 8.43317 51.2083 7.641C51.2083 6.84884 51.8507 6.20651 52.6428 6.20651H55.5118C56.304 6.20651 56.9463 6.84884 56.9463 7.641C56.9463 8.43317 56.304 9.0755 55.5118 9.0755Z" fill="white"/>
<path d="M72.7257 9.0755H59.8152C59.0231 9.0755 58.3807 8.43317 58.3807 7.641C58.3807 6.84884 59.0231 6.20651 59.8152 6.20651H72.7257C73.5178 6.20651 74.1601 6.84884 74.1601 7.641C74.1601 8.43317 73.5178 9.0755 72.7257 9.0755Z" fill="white"/>
<path d="M72.7257 14.8135H52.6428C51.8507 14.8135 51.2083 14.1711 51.2083 13.379C51.2083 12.5868 51.8507 11.9445 52.6428 11.9445H72.7257C73.5179 11.9445 74.1602 12.5868 74.1602 13.379C74.1602 14.1711 73.5179 14.8135 72.7257 14.8135Z" fill="white"/>
<path d="M64.1188 20.5514H52.6428C51.8507 20.5514 51.2083 19.9091 51.2083 19.1169C51.2083 18.3248 51.8507 17.6824 52.6428 17.6824H64.1188C64.9109 17.6824 65.5533 18.3248 65.5533 19.1169C65.5533 19.9091 64.9109 20.5514 64.1188 20.5514Z" fill="white"/>
</svg>
