<svg width="50" height="71" viewBox="0 0 50 71" fill="none" xmlns="http://www.w3.org/2000/svg">
<path d="M6.11463 68.7468C6.62596 69.7935 7.65333 70.4331 8.81238 70.4331C8.84518 70.4331 8.87798 70.4302 8.91078 70.4302C10.1244 70.3921 11.1658 69.6728 11.6361 68.5442L15.9586 57.8544H18.5861C18.9545 60.7555 21.0847 65.8418 22.413 68.7961C22.8751 69.8264 23.8533 70.4608 24.9713 70.4608H25.0012C26.1164 70.4496 27.084 69.8018 27.5103 68.7961C29.8187 63.6677 31.1247 59.9963 31.4076 57.8544H33.9929L38.3206 68.5553C38.7851 69.6734 39.8265 70.3921 41.0401 70.4302C41.0729 70.4302 41.1057 70.4331 41.1385 70.4331C42.2977 70.4331 43.325 69.7906 43.8445 68.7305C47.7424 60.4843 49.5546 54.8369 49.2348 51.9431V51.9378C48.8617 48.6725 44.8895 43.0596 41.4747 38.7593C41.644 36.8012 41.7453 34.8034 41.7453 32.7634C41.7453 19.206 33.4522 7.70668 28.5106 2.05688C27.625 1.04536 26.354 0.463153 25.0174 0.460754H25.0121C23.6784 0.460754 22.4075 1.04002 21.5219 2.04864C16.5475 7.70368 8.20531 19.2139 8.20531 32.7627C8.20531 34.798 8.30781 36.7958 8.47941 38.7533C5.0648 43.0548 1.08895 48.6706 0.715893 51.9505C0.412501 54.8778 2.2276 60.5224 6.11439 68.747L6.11463 68.7468ZM24.9668 67.6481C23.0756 63.4415 21.7823 59.9073 21.4214 57.8656H28.5799C28.3421 59.1612 27.5333 61.9297 24.9666 67.6481H24.9668ZM46.4534 52.2506C46.601 53.5872 46.1283 57.351 41.3149 67.5326C41.0349 67.5057 40.6331 67.4676 40.9131 67.4945L36.6914 57.0567C38.4028 53.7181 40.143 48.6102 41.0221 42.7431C44.2699 47.0791 46.2566 50.536 46.4534 52.2509L46.4534 52.2506ZM23.6248 3.89592C23.9827 3.48592 24.4776 3.25926 25.0135 3.25926H25.0164C25.5524 3.26218 26.0444 3.48885 26.4052 3.89885C30.1771 8.20907 38.9481 19.6502 38.9481 32.7626C38.9481 34.8922 38.8508 36.9827 38.6611 39.0116C38.6587 39.0285 38.6435 39.0403 38.6417 39.0572C38.015 45.6617 36.4261 51.1521 34.5494 55.056H15.4333C15.4199 55.0285 15.4087 54.9974 15.3959 54.9693C12.9353 49.8121 11.0054 41.7499 11.0054 32.763C11.0054 19.6594 19.8286 8.21005 23.6251 3.89623L23.6248 3.89592ZM8.94163 42.7323C9.44768 46.0755 10.3497 49.7906 11.589 53.0917C11.9211 53.9832 12.0822 54.4887 12.9373 56.2651C13.055 56.5093 13.1552 56.7811 13.277 57.0183L9.04056 67.4949C8.76059 67.5218 8.35879 67.5599 8.63876 67.533C5.13388 60.1231 3.26201 54.5473 3.49982 52.2539C3.69369 50.536 5.68566 47.0745 8.94164 42.732L8.94163 42.7323Z" fill="white"/>
<path d="M24.9772 34.7687C29.4678 34.7687 33.1226 31.1144 33.1226 26.6232C33.1226 22.149 29.4684 18.5082 24.9772 18.5082C20.4866 18.5082 16.8318 22.149 16.8318 26.6232C16.8323 31.1144 20.4866 34.7687 24.9772 34.7687ZM24.9772 21.3073C27.9262 21.3073 30.3235 23.6935 30.3235 26.6238C30.3235 29.5729 27.9262 31.9701 24.9772 31.9701C22.0281 31.9701 19.6309 29.5729 19.6309 26.6238C19.6309 23.6935 22.0281 21.3073 24.9772 21.3073Z" fill="white"/>
<path d="M30.8835 39.7481H19.0703C18.2966 39.7481 17.6711 40.3743 17.6711 41.1474C17.6711 41.9211 18.2972 42.5466 19.0703 42.5466H30.8835C31.6572 42.5466 32.2827 41.9205 32.2827 41.1474C32.2827 40.3743 31.6572 39.7481 30.8835 39.7481Z" fill="white"/>
<path d="M30.8835 46.2886H19.0703C18.2966 46.2886 17.6711 46.9147 17.6711 47.6879C17.6711 48.4616 18.2972 49.0871 19.0703 49.0871H30.8835C31.6572 49.0871 32.2827 48.461 32.2827 47.6879C32.2827 46.9147 31.6572 46.2886 30.8835 46.2886Z" fill="white"/>
</svg>
