<svg width="53" height="67" viewBox="0 0 53 67" fill="none" xmlns="http://www.w3.org/2000/svg">
<path d="M21.4456 48.9688C21.3897 48.9878 21.3341 49.0066 21.2788 49.025C21.3614 49.0528 21.4448 49.0814 21.529 49.1107C24.0246 49.9793 27.2125 51.5079 29.8523 54.1477C32.4921 56.7875 34.0207 59.9754 34.8893 62.471C34.89 62.473 34.8907 62.4749 34.8914 62.4769C35.6971 60.0937 37.2315 57.0639 40.1477 54.1477C42.9379 51.3576 45.8319 49.8323 48.1642 49C45.8319 48.1677 42.9379 46.6424 40.1477 43.8523C37.2616 40.9662 35.7289 37.9689 34.9165 35.5971C34.0605 38.0547 32.537 41.1675 29.8523 43.8523C27.1121 46.5925 23.9259 48.1229 21.4456 48.9688Z" stroke="#5271FF" stroke-width="2"/>
<path d="M3.08725 12.4783C3.04839 12.4916 3.00976 12.5046 2.97138 12.5174C3.02877 12.5367 3.0867 12.5565 3.14513 12.5769C4.87822 13.1801 7.092 14.2416 8.92518 16.0748C10.7584 17.908 11.8199 20.1218 12.4231 21.8549C12.4236 21.8562 12.4241 21.8576 12.4246 21.8589C12.9841 20.2039 14.0497 18.1 16.0748 16.0748C18.0124 14.1372 20.0221 13.078 21.6418 12.5C20.0221 11.922 18.0124 10.8628 16.0748 8.92518C14.0706 6.92094 13.0062 4.8395 12.442 3.19247C11.8475 4.89913 10.7896 7.06079 8.92518 8.92518C7.02226 10.8281 4.80966 11.8909 3.08725 12.4783Z" stroke="#5271FF" stroke-width="1.38889"/>
</svg>
